<?xml version="1.0" standalone="no"?> <!DOCTYPE svg PUBLIC "-//W3C//DTD SVG 1.0//EN" "http://www.w3.org/TR/2001/REC-SVG-20010904/DTD/svg10.dtd" > <svg xmlns="http://www.w3.org/2000/svg" width="100%" height="100%">
<defs >
<font id="regular" horiz-adv-x="1015" ><font-face
    font-family="Antenna Regular"
    units-per-em="2048"
    panose-1="2 0 5 3 0 0 0 2 0 4"
    ascent="1639"
    descent="-409"
    alphabetic="0" />
<missing-glyph horiz-adv-x="471" />
<glyph unicode=" " glyph-name="space" horiz-adv-x="471" />
<glyph unicode="!" glyph-name="exclam" horiz-adv-x="757" d="M254 0V266H502V0H254ZM291 434L268 1518H487L465 434H291Z" />
<glyph unicode="&quot;" glyph-name="quotedbl" horiz-adv-x="1034" d="M209 897L195 1518H399L387 897H209ZM649 897L635 1518H842L827 897H649Z" />
<glyph unicode="#" glyph-name="numbersign" horiz-adv-x="1542" d="M287 0L371 428H129V610H403L457 889H129V1073H492L580 1518H770L682 1073H979L1065 1518H1255L1171 1073H1415V889H1137L1081 610H1415V428H1049L965 0H774L856 428H561L479 0H287ZM580 600H901L961
901H639L580 600Z" />
<glyph unicode="$" glyph-name="dollar" horiz-adv-x="1372" d="M602 -193V2Q310 16 117 152L211 299Q396 179 610 170V711Q531 727 477 742T362 788T266 858T206 963T182 1110Q182 1304 284 1402T602 1516V1655H784V1516Q1012 1497 1157 1405L1063 1249Q956 1319
778 1335V860Q838 848 881 837T975 809T1061 770T1132 718T1188 649T1222 559T1235 444Q1235 244 1126 133T784 4V-193H602ZM1044 430Q1044 541 982 593T778 678V172Q918 187 981 251T1044 430ZM375 1118Q375 1022 431 974T610 895V1337Q482 1325 429 1272T375
1118Z" />
<glyph unicode="%" glyph-name="percent" horiz-adv-x="2347" d="M514 569Q296 569 190 697T84 1055Q84 1283 190 1412T514 1542Q728 1542 833 1412T938 1055Q938 827 833 698T514 569ZM514 729Q760 729 760 1055Q760 1376 514 1376Q264 1376 264 1055Q264 729
514 729ZM2049 -20T1833 -20T1512 108T1407 467Q1407 693 1512 823T1833 954T2154 824T2261 467Q2261 238 2155 109ZM1587 139T1833 139T2079 467Q2079 786 1833 786T1587 467Q1587 139 1833 139ZM653 0L1501 1520H1690L842 0H653Z" />
<glyph unicode="&amp;" glyph-name="ampersand" horiz-adv-x="1646" d="M616 -20Q334 -20 212 80T90 410Q90 493 115 563T188 687T288 782T410 860Q332 1043 332 1200Q332 1372 424 1457T684 1542Q849 1542 929 1460T1010 1200Q1010 1138 990 1083T940 989T860
909T767 844T662 784Q767 601 913 465Q975 407 1044 350Q1107 438 1155 566T1255 891L1425 850Q1372 645 1318 501T1192 254Q1278 208 1348 194T1499 180H1520V0H1493Q1367 0 1268 22T1059 111Q894 -20 616 -20ZM616 147Q794 147 907 217Q817 295 762 350Q601 505
485 707Q390 644 338 575T285 414Q285 361 292 324T320 251T377 194T473 160T616 147ZM522 1200Q522 1083 588 928Q707 992 770 1054T834 1200Q834 1287 801 1326T684 1366Q600 1366 561 1326T522 1200Z" />
<glyph unicode="&apos;" glyph-name="quotesingle" horiz-adv-x="595" d="M209 897L195 1520H399L387 897H209Z" />
<glyph unicode="(" glyph-name="parenleft" horiz-adv-x="1001" d="M662 -381Q599 -329 541 -262T424 -101T322 99T252 339T225 616Q225 782 265 943T370 1233T510 1459T662 1622L805 1518Q430 1156 430 616Q430 487 454 365T515 149T603 -29T703 -172T805 -279L662
-381Z" />
<glyph unicode=")" glyph-name="parenright" horiz-adv-x="1001" d="M338 -381L199 -279Q569 87 569 616Q569 776 535 923T443 1183T325 1376T199 1518L338 1622Q417 1555 489 1463T627 1245T734 956T774 616Q774 450 734 290T628 3T489 -219T338 -381Z" />
<glyph unicode="*" glyph-name="asterisk" horiz-adv-x="1196" d="M518 532L537 907L213 707L133 850L471 1024L133 1200L213 1343L537 1139L518 1520H676L659 1139L983 1343L1063 1200L723 1024L1063 850L983 707L659 909L676 532H518Z" />
<glyph unicode="+" glyph-name="plus" horiz-adv-x="1439" d="M621 219V627H211V817H621V1225H817V817H1229V627H817V219H621Z" />
<glyph unicode="," glyph-name="comma" horiz-adv-x="518" d="M182 -266L129 -162Q207 -119 231 -89T256 0H133V270H383V70Q383 -76 345 -141T182 -266Z" />
<glyph unicode="-" glyph-name="hyphen" horiz-adv-x="911" d="M98 549V735H809V549H98Z" />
<glyph unicode="." glyph-name="period" horiz-adv-x="518" d="M133 0V270H383V0H133Z" />
<glyph unicode="/" glyph-name="slash" horiz-adv-x="1054" d="M0 0L850 1518H1055L205 0H0Z" />
<glyph unicode="0" glyph-name="zero" horiz-adv-x="1517" d="M760 -23Q619 -23 514 14T340 116T230 281T171 496T154 760T171 1024T229 1240T339 1404T513 1505T760 1542Q899 1542 1004 1506T1176 1404T1286 1240T1345 1025T1362 760Q1362 612 1345 497T1286
281T1177 116T1004 14T760 -23ZM760 162Q858 162 930 191T1045 270T1115 399T1150 562T1159 760Q1159 874 1150 958T1115 1120T1046 1246T931 1323T760 1352T589 1324T472 1247T402 1121T367 959T358 760Q358 680 362 616T378 489T409 377T460 288T532 219T631
177T760 162Z" />
<glyph unicode="1" glyph-name="one" horiz-adv-x="786" d="M354 0V1327H72V1518H549V0H354Z" />
<glyph unicode="2" glyph-name="two" horiz-adv-x="1236" d="M74 0V166L582 653Q680 747 730 799T823 911T882 1022T897 1137Q897 1254 828 1306T592 1358Q474 1358 364 1332T180 1266L92 1430Q198 1486 318 1514T608 1542Q855 1542 975 1450T1096 1155Q1096 1069
1078 1000T1013 858T908 720T748 557L350 176H1118V0H74Z" />
<glyph unicode="3" glyph-name="three" horiz-adv-x="1273" d="M608 -25Q437 -25 304 9T35 123L135 283Q259 216 367 185T600 154Q789 154 869 218T950 449Q950 525 934 575T877 662T760 716T567 733H342V911H563Q756 911 831 964T907 1149Q907 1268 838 1315T596
1362Q490 1362 378 1334T180 1255L74 1409Q181 1475 322 1508T612 1542Q864 1542 983 1460T1102 1184Q1102 892 915 836Q1037 807 1091 712T1145 434Q1145 329 1121 250T1053 119T942 34T794 -11T608 -25Z" />
<glyph unicode="4" glyph-name="four" horiz-adv-x="1384" d="M98 360V522L774 1518H991L319 532H860L901 1014H1044V532H1317V360H1044V0H858V360H98Z" />
<glyph unicode="5" glyph-name="five" horiz-adv-x="1323" d="M651 -23Q482 -23 352 16T104 125L207 285Q321 222 421 188T647 154Q716 154 769 161T874 191T958 249T1012 346T1032 487Q1032 586 1006 654T928 759T814 810T666 825Q558 825 481 809T328 756L160
807L199 1518H1120V1337H379L356 938Q488 1004 713 1004Q806 1004 879 992T1021 945T1134 854T1206 707T1233 494Q1233 369 1204 277T1126 127T1001 36T842 -10T651 -23Z" />
<glyph unicode="6" glyph-name="six" horiz-adv-x="1433" d="M754 -23Q440 -23 293 131T145 627Q145 791 161 914T218 1139T323 1311T486 1427T717 1496T1026 1518H1110V1337H1020Q904 1337 810 1325T649 1291T532 1235T450 1165T397 1080T365 985T348 881Q460
1022 813 1022Q955 1022 1054 988T1210 884T1292 724T1317 508Q1317 380 1288 285T1195 120T1021 13T754 -23ZM756 152Q863 152 935 176T1047 248T1103 356T1120 502Q1120 586 1103 647T1045 757T932 829T756 854Q568 854 459 774T350 539Q350 329 452 241T756
152Z" />
<glyph unicode="7" glyph-name="seven" horiz-adv-x="1122" d="M281 0L868 1337H39V1518H1085V1360L489 0H281Z" />
<glyph unicode="8" glyph-name="eight" horiz-adv-x="1447" d="M723 -29Q565 -29 450 3T265 97T162 239T129 426Q129 585 190 691T379 834Q180 900 180 1163Q180 1250 206 1315T292 1434T461 1514T723 1542Q847 1542 942 1524T1097 1472T1196 1391T1250 1287T1266
1163Q1266 1039 1219 952T1069 834Q1319 760 1319 426Q1319 211 1176 91T723 -29ZM519 143T723 143T1022 217T1118 440Q1118 589 1023 663T723 737T425 663T330 440Q330 292 424 218ZM534 905T723 905T992 963T1073 1141Q1073 1257 993 1314T723 1372T454 1315T373
1141Q373 1022 453 964Z" />
<glyph unicode="9" glyph-name="nine" horiz-adv-x="1433" d="M330 0V176H420Q538 176 632 189T794 223T911 279T993 350T1045 436T1077 531T1094 635Q979 494 629 494Q515 494 428 518T284 585T191 693T140 834T125 1008Q125 1136 154 1231T247 1397T421 1505T688
1542Q1002 1542 1149 1388T1296 893Q1296 729 1280 606T1224 380T1119 208T956 91T725 22T416 0H330ZM684 657Q872 657 982 737T1092 971Q1092 1182 991 1271T688 1360Q581 1360 508 1336T395 1264T339 1156T322 1010Q322 926 339 864T397 754T509 682T684 657Z"
/>
<glyph unicode=":" glyph-name="colon" horiz-adv-x="559" d="M154 0V262H403V0H154ZM154 877V1139H403V877H154Z" />
<glyph unicode=";" glyph-name="semicolon" horiz-adv-x="559" d="M203 -266L150 -162Q228 -119 252 -89T276 0H154V262H403V70Q403 -71 365 -139T203 -266ZM154 877V1139H403V877H154Z" />
<glyph unicode="&lt;" glyph-name="less" horiz-adv-x="1439" d="M1141 170L217 635V782L1141 1243V1057L422 709L1141 362V170Z" />
<glyph unicode="=" glyph-name="equal" horiz-adv-x="1439" d="M223 399V586H1219V399H223ZM223 858V1042H1219V858H223Z" />
<glyph unicode="&gt;" glyph-name="greater" horiz-adv-x="1439" d="M299 170V362L1018 707L299 1055V1243L1223 780V633L299 170Z" />
<glyph unicode="?" glyph-name="question" horiz-adv-x="1380" d="M551 414Q539 493 542 557T557 667T599 753T672 825T782 893Q861 935 898 958T967 1011T1008 1073T1018 1153Q1018 1205 1007 1238T962 1299T863 1341T694 1354Q457 1354 252 1249L168 1423Q268
1478 415 1510T709 1542Q900 1542 1013 1501T1173 1380T1221 1169Q1221 1092 1204 1034T1146 930T1060 851T938 778Q888 752 857 733T801 690T765 643T747 586T740 512T745 414H551ZM522 0V242H772V0H522Z" />
<glyph unicode="@" glyph-name="at" horiz-adv-x="2209" d="M1124 -338Q644 -338 409 -109T174 598T412 1309T1104 1544Q1562 1544 1801 1310T2040 598Q2040 442 2024 344T1967 182T1858 92T1683 66Q1617 66 1568 76T1491 101T1446 139T1422 183T1413 229Q1363
149 1271 112T1016 74Q895 74 809 112T672 223T598 390T575 608Q575 1139 1024 1139Q1183 1139 1266 1106T1391 995L1434 1128L1559 1118V352Q1559 313 1564 286T1584 232T1633 192T1718 178Q1762 178 1794 187T1848 218T1884 271T1906 351T1916 458T1919 598Q1919
1019 1716 1222T1104 1425Q295 1425 295 598Q295 185 500 -17T1122 -219Q1280 -219 1426 -187T1683 -102L1735 -207Q1473 -338 1124 -338ZM1053 233Q1221 233 1299 319T1378 608Q1378 808 1302 888T1053 969Q895 969 826 877T756 608Q756 428 826 331T1053 233Z"
/>
<glyph unicode="A" glyph-name="A" horiz-adv-x="1517" d="M45 0L653 1528H864L1473 0H1260L1135 319H377L252 0H45ZM446 510H1061L754 1280L446 510Z" />
<glyph unicode="B" glyph-name="B" horiz-adv-x="1468" d="M172 0V1518H842Q1106 1518 1228 1427T1350 1143Q1350 857 1159 797Q1284 766 1336 676T1389 420Q1389 190 1253 95T829 0H172ZM375 186H852Q1023 186 1101 245T1180 438Q1180 568 1101 626T848 684H375V186ZM375
877H848Q932 877 990 893T1081 943T1127 1017T1141 1114Q1141 1222 1072 1275T848 1329H375V877Z" />
<glyph unicode="C" glyph-name="C" horiz-adv-x="1497" d="M842 -23Q453 -23 269 174T84 760Q84 1154 282 1348T852 1542Q1194 1542 1401 1343L1251 1194Q1090 1343 850 1343Q293 1343 293 758Q293 466 429 319T852 172Q1002 172 1093 212T1264 328L1411 186Q1366
141 1318 107T1203 42T1044 -6T842 -23Z" />
<glyph unicode="D" glyph-name="D" horiz-adv-x="1558" d="M172 0V1518H680Q828 1518 939 1503T1142 1453T1295 1361T1398 1219T1458 1021T1477 760Q1477 542 1432 397T1284 163T1031 37T657 0H172ZM379 190H668Q842 190 956 219T1140 319T1239 494T1268 760Q1268
925 1243 1027T1151 1198T972 1294T682 1321H379V190Z" />
<glyph unicode="E" glyph-name="E" horiz-adv-x="1335" d="M172 0V1518H1210V1319H379V883H1190V686H379V190H1219V0H172Z" />
<glyph unicode="F" glyph-name="F" horiz-adv-x="1257" d="M172 0V1518H1182V1319H379V862H1163V666H379V0H172Z" />
<glyph unicode="G" glyph-name="G" horiz-adv-x="1603" d="M840 -23Q633 -23 487 26T253 176T124 420T84 760Q84 1162 278 1352T850 1542Q1223 1542 1419 1346L1272 1194Q1193 1265 1095 1304T850 1343Q566 1343 429 1199T291 758Q291 604 320 495T414 310T587
198T848 162Q988 162 1080 189T1223 276T1295 415T1315 614V657H825V842H1520V651Q1520 541 1508 456T1468 291T1389 157T1264 60T1084 -2T840 -23Z" />
<glyph unicode="H" glyph-name="H" horiz-adv-x="1611" d="M172 0V1518H379V891H1233V1518H1440V0H1233V686H379V0H172Z" />
<glyph unicode="I" glyph-name="I" horiz-adv-x="581" d="M188 0V1518H393V0H188Z" />
<glyph unicode="J" glyph-name="J" horiz-adv-x="847" d="M229 -2Q117 -2 57 0V190H207Q357 190 419 251T481 451V1518H686V442Q686 202 572 100T229 -2Z" />
<glyph unicode="K" glyph-name="K" horiz-adv-x="1472" d="M1165 0L655 768L375 455V0H172V1518H375V721L1090 1518H1327L791 920L1401 0H1165Z" />
<glyph unicode="L" glyph-name="L" horiz-adv-x="1218" d="M172 0V1518H379V190H1169V0H172Z" />
<glyph unicode="M" glyph-name="M" horiz-adv-x="1906" d="M172 0V1518H442L954 291L1468 1518H1735V0H1532V1171L1036 0H864L371 1169V0H172Z" />
<glyph unicode="N" glyph-name="N" horiz-adv-x="1619" d="M172 0V1518H397L1247 348V1518H1448V0H1257L373 1214V0H172Z" />
<glyph unicode="O" glyph-name="O" horiz-adv-x="1718" d="M1632 -25T858 -25T84 760Q84 1542 858 1542T1632 760Q1632 -25 858 -25ZM858 168Q1425 168 1425 756Q1425 1045 1287 1194T858 1343Q568 1343 431 1194T293 756T430 318T858 168Z" />
<glyph unicode="P" glyph-name="P" horiz-adv-x="1474" d="M172 0V1518H854Q1136 1518 1263 1403T1391 1049Q1391 804 1262 677T848 549H375V0H172ZM375 741H854Q1022 741 1103 809T1184 1038Q1184 1200 1105 1262T850 1325H375V741Z" />
<glyph unicode="Q" glyph-name="Q" horiz-adv-x="1718" d="M1108 -383Q941 -383 852 -346T729 -228T705 -4Q395 29 240 213T84 760Q84 1164 279 1353T858 1542Q1242 1542 1437 1353T1632 760Q1632 367 1449 182T903 -12Q897 -127 936 -165T1108 -203H1276V-381Q1268
-381 1203 -382T1108 -383ZM858 168Q1157 168 1291 316T1425 756T1291 1195T858 1343Q560 1343 427 1196T293 756T426 316T858 168Z" />
<glyph unicode="R" glyph-name="R" horiz-adv-x="1499" d="M1137 0L799 584H375V0H172V1518H848Q1129 1518 1254 1404T1380 1059Q1380 664 1014 598L1358 0H1137ZM375 774H846Q1011 774 1091 835T1171 1051Q1171 1207 1092 1266T840 1325H375V774Z" />
<glyph unicode="S" glyph-name="S" horiz-adv-x="1460" d="M727 -20Q340 -20 74 160L178 319Q420 162 721 162Q950 162 1048 224T1147 426Q1147 466 1136 497T1109 552T1060 594T999 626T917 650T826 670T719 688Q635 702 578 713T456 743T350 783T268 835T205
906T168 999T154 1120Q154 1344 293 1443T723 1542Q1066 1542 1276 1403L1163 1233Q1083 1287 966 1319T723 1352Q528 1352 443 1299T358 1124Q358 1088 368 1059T393 1008T438 968T497 938T575 914T664 894T770 874Q831 864 869 857T960 839T1046 817T1121 791T1189
758T1244 717T1291 665T1323 603T1345 527T1352 436Q1352 206 1202 93T727 -20Z" />
<glyph unicode="T" glyph-name="T" horiz-adv-x="1419" d="M606 0V1319H49V1518H1372V1319H815V0H606Z" />
<glyph unicode="U" glyph-name="U" horiz-adv-x="1613" d="M923 -27T805 -27T592 -10T431 36T315 109T237 202T191 312T168 430T162 557V1518H369V582Q369 503 379 444T419 330T496 242T622 188T807 168T993 187T1121 240T1200 327T1241 441T1253 582V1518H1454V557Q1454
487 1448 430T1424 311T1377 201T1298 109T1181 36T1019 -10Z" />
<glyph unicode="V" glyph-name="V" horiz-adv-x="1513" d="M651 -10L47 1518H264L760 250L1251 1518H1468L862 -10H651Z" />
<glyph unicode="W" glyph-name="W" horiz-adv-x="2217" d="M547 -10L63 1518H279L647 336L1024 1518H1206L1583 336L1952 1518H2154L1673 -10H1491L1110 1180L731 -10H547Z" />
<glyph unicode="X" glyph-name="X" horiz-adv-x="1490" d="M1186 0L737 639L303 0H74L629 795L125 1518H354L752 950L1139 1518H1368L860 795L1419 0H1186Z" />
<glyph unicode="Y" glyph-name="Y" horiz-adv-x="1466" d="M631 0V573L20 1518H246L735 762L1229 1518H1444L836 578V0H631Z" />
<glyph unicode="Z" glyph-name="Z" horiz-adv-x="1376" d="M86 0V164L1004 1319H121V1518H1264V1337L350 190H1286V0H86Z" />
<glyph unicode="[" glyph-name="bracketleft" horiz-adv-x="974" d="M244 -338V1589H776V1407H446V-162H782V-338H244Z" />
<glyph unicode="\" glyph-name="backslash" horiz-adv-x="1054" d="M850 0L0 1518H205L1055 0H850Z" />
<glyph unicode="]" glyph-name="bracketright" horiz-adv-x="974" d="M197 -338V-162H528V1407H195V1589H729V-338H197Z" />
<glyph unicode="^" glyph-name="asciicircum" horiz-adv-x="1208" d="M182 1202L496 1538H711L1024 1202H831L600 1409L373 1202H182Z" />
<glyph unicode="_" glyph-name="underscore" horiz-adv-x="927" d="M-76 -270V-109H1004V-270H-76Z" />
<glyph unicode="`" glyph-name="grave" horiz-adv-x="1208" d="M592 1255L229 1591H473L776 1255H592Z" />
<glyph unicode="a" glyph-name="a" horiz-adv-x="1284" d="M487 -20Q391 -20 319 -3T202 45T129 120T91 214T80 324Q80 423 104 492T179 610T321 687T534 728T831 741H893Q891 808 881 848T840 921T754 966T608 979Q426 979 272 883L168 1038Q237 1085 363 1125T627
1165Q725 1165 796 1154T919 1118T1002 1059T1052 970T1078 856T1085 709V303Q1085 219 1103 198T1198 176V2Q1184 -2 1116 -2Q1025 -2 985 26T922 127Q869 53 767 17T487 -20ZM520 152Q717 152 805 235T893 502V571H842Q604 571 483 550T316 480T270 338Q270 242
325 197T520 152Z" />
<glyph unicode="b" glyph-name="b" horiz-adv-x="1343" d="M754 -20Q574 -20 476 13T324 121L287 -8L147 6V1589H346V1026Q394 1098 494 1131T764 1165Q876 1165 961 1136T1101 1057T1190 931T1237 768T1251 571Q1251 462 1237 376T1187 214T1096 88T954 9T754
-20ZM721 158Q816 158 881 185T982 268T1033 394T1049 563Q1049 663 1034 734T984 862T883 947T721 975Q519 975 434 882T348 563Q348 338 431 248T721 158Z" />
<glyph unicode="c" glyph-name="c" horiz-adv-x="1165" d="M647 -20Q519 -20 422 8T263 86T162 211T108 374T92 571Q92 682 107 769T162 932T264 1058T425 1136T655 1165Q928 1165 1079 995L934 858Q823 973 655 973Q552 973 481 946T369 865T311 738T293 567Q293
467 310 395T367 268T479 186T655 158Q744 158 810 186T944 274L1077 147Q984 61 888 21T647 -20Z" />
<glyph unicode="d" glyph-name="d" horiz-adv-x="1343" d="M582 -20Q470 -20 385 9T245 88T155 215T106 378T92 575Q92 683 106 769T156 931T247 1056T389 1134T588 1163Q762 1163 857 1130T995 1026V1589H1196V8L1042 -6L1020 127Q965 51 863 16T582 -20ZM625
162Q826 162 910 256T995 575Q995 799 913 888T625 977Q528 977 463 950T361 868T310 743T295 575Q295 475 310 404T361 276T463 191T625 162Z" />
<glyph unicode="e" glyph-name="e" horiz-adv-x="1228" d="M651 -23Q515 -23 414 8T252 90T155 220T105 382T92 571Q92 676 106 759T157 921T255 1051T415 1134T647 1165Q745 1165 821 1146T948 1093T1035 1010T1088 904T1116 779T1127 641T1126 494H285Q289 428
300 378T338 284T404 211T506 167T651 150Q779 150 858 178T1014 262L1120 123Q1025 49 916 13T651 -23ZM641 989Q546 989 479 967T373 901T313 802T287 670H938Q935 717 933 745T922 811T902 871T868 919T816 958T742 980T641 989Z" />
<glyph unicode="f" glyph-name="f" horiz-adv-x="819" d="M59 958V1139H274V1219Q274 1308 291 1372T348 1487T460 1563T637 1589H768V1415H662Q555 1415 514 1365T473 1219V1139H768V958H473V0H274V958H59Z" />
<glyph unicode="g" glyph-name="g" horiz-adv-x="1251" d="M604 416Q493 416 416 430Q389 398 389 360Q389 311 433 297T616 283Q833 283 952 255T1122 163T1174 -18Q1174 -203 1042 -285T598 -367Q478 -367 394 -360T243 -334T136 -283T76 -202T55 -84Q55 150
272 195Q209 237 209 332Q209 419 260 489Q121 578 121 782Q121 976 237 1070T604 1165Q653 1165 678 1163L1126 1227V1063H942Q1090 983 1090 782Q1090 593 973 505T604 416ZM604 -209Q750 -209 832 -187T944 -128T973 -29Q973 58 896 86T604 115Q514 115 450
107T348 84T290 48T263 3T256 -51Q256 -140 334 -174T604 -209ZM604 580Q760 580 826 627T893 782Q893 890 823 937T604 985Q446 985 380 939T313 782Q313 675 380 628T604 580Z" />
<glyph unicode="h" glyph-name="h" horiz-adv-x="1294" d="M147 0V1589H346V1040Q431 1165 741 1165Q847 1165 922 1142T1041 1081T1110 980T1143 852T1151 694V0H952V655Q952 701 951 731T943 798T926 857T894 903T845 940T774 961T678 969Q596 969 536 952T440
907T383 834T355 742T348 631V0H147Z" />
<glyph unicode="i" glyph-name="i" horiz-adv-x="516" d="M160 0V1139H356V0H160ZM158 1276V1518H358V1276H158Z" />
<glyph unicode="j" glyph-name="j" horiz-adv-x="516" d="M4 -344V-180H20Q109 -179 134 -146T160 -12V1139H356V-10Q356 -110 343 -171T294 -272T199 -328T41 -344H4ZM158 1276V1518H358V1276H158Z" />
<glyph unicode="k" glyph-name="k" horiz-adv-x="1142" d="M147 0V1589H344V553L848 1139H1069L666 666L1110 0H889L532 520L344 305V0H147Z" />
<glyph unicode="l" glyph-name="l" horiz-adv-x="624" d="M416 -2Q274 -2 217 64T160 295V1589H356V317Q356 234 379 205T483 176H528V2Q492 -2 416 -2Z" />
<glyph unicode="m" glyph-name="m" horiz-adv-x="2052" d="M147 0V1128L305 1139L322 1030Q404 1165 729 1165Q817 1165 880 1155T983 1125T1043 1081T1077 1022Q1169 1165 1513 1165Q1589 1165 1648 1153T1750 1121T1822 1068T1869 998T1897 910T1910 810T1913
694V0H1712V655Q1712 689 1712 709T1710 758T1704 804T1694 845T1677 881T1653 911T1620 936T1576 954T1520 965T1450 969Q1368 969 1309 952T1215 907T1161 834T1135 742T1128 631V0H932V655Q932 692 932 715T929 769T921 819T906 861T884 899T850 928T805 951T745
964T668 969Q599 969 547 958T460 925T403 874T369 805T353 725T348 631V0H147Z" />
<glyph unicode="n" glyph-name="n" horiz-adv-x="1294" d="M147 0V1128L305 1139L322 1030Q421 1165 741 1165Q847 1165 922 1142T1041 1081T1110 980T1143 852T1151 694V0H952V655Q952 701 951 731T943 798T926 857T894 903T845 940T774 961T678 969Q596 969
536 952T440 907T383 834T355 742T348 631V0H147Z" />
<glyph unicode="o" glyph-name="o" horiz-adv-x="1308" d="M653 -23Q357 -23 225 124T92 571Q92 871 224 1018T653 1165Q950 1165 1083 1018T1217 571T1084 125T653 -23ZM653 158Q848 158 931 260T1014 567T931 873T653 975Q459 975 376 874T293 567T376 260T653 158Z" />
<glyph unicode="p" glyph-name="p" horiz-adv-x="1343" d="M147 -338V1128L305 1139L322 1018Q369 1092 473 1128T764 1165Q877 1165 961 1137T1101 1058T1190 931T1237 768T1251 571Q1251 463 1237 377T1188 215T1098 89T956 11T756 -18Q582 -18 488 15T348 119V-338H147ZM721
162Q816 162 881 189T982 270T1033 396T1049 565Q1049 664 1034 735T984 863T883 947T721 975Q518 975 433 883T348 565Q348 340 431 251T721 162Z" />
<glyph unicode="q" glyph-name="q" horiz-adv-x="1343" d="M995 -338V115Q939 41 846 11T582 -20Q470 -20 385 9T245 88T155 214T106 377T92 573Q92 711 116 814T195 998T348 1122T588 1165Q769 1165 867 1133T1020 1028L1057 1153L1196 1141V-338H995ZM625 162Q826
162 910 255T995 573Q995 798 913 887T625 977Q528 977 463 950T361 868T310 743T295 573T310 403T361 275T463 191T625 162Z" />
<glyph unicode="r" glyph-name="r" horiz-adv-x="759" d="M147 0V1128L305 1139L326 999Q361 1063 463 1106T711 1153V952Q610 951 539 926T426 853T367 744T348 600V0H147Z" />
<glyph unicode="s" glyph-name="s" horiz-adv-x="1097" d="M543 -20Q250 -20 51 113L154 268Q332 154 555 154Q708 154 768 188T829 322Q829 399 774 429T555 487Q488 499 445 508T350 532T266 564T201 607T150 665T121 741T109 840Q109 1001 213 1083T555 1165Q818
1165 989 1065L895 901Q749 981 559 981Q417 981 362 946T307 840Q307 764 360 732T563 674Q615 665 645 659T718 644T787 626T845 605T898 579T941 547T976 508T1001 460T1017 401T1022 330Q1022 138 911 59T543 -20Z" />
<glyph unicode="t" glyph-name="t" horiz-adv-x="856" d="M59 958V1139H266L301 1462L459 1493V1139H760V958H459V338Q459 295 463 270T483 221T533 187T623 176H760V0Q735 -2 588 -2Q507 -2 450 10T356 46T298 110T268 197T260 311V958H59Z" />
<glyph unicode="u" glyph-name="u" horiz-adv-x="1280" d="M736 -20T643 -20T478 -9T352 23T262 76T201 149T164 243T146 355T141 487V1139H340V483Q340 445 340 425T343 371T351 319T367 276T393 236T431 206T483 181T553 168T643 162Q847 162 907 255Q942 310
944 435Q944 451 944 489V1139H1139V494Q1139 416 1135 359T1117 246T1082 150T1022 77T933 23T809 -8Z" />
<glyph unicode="v" glyph-name="v" horiz-adv-x="1150" d="M467 -10L14 1139H227L578 227L928 1139H1135L682 -10H467Z" />
<glyph unicode="w" glyph-name="w" horiz-adv-x="1818" d="M426 -10L27 1139H236L530 279L813 1139H1010L1292 281L1589 1139H1792L1391 -10H1192L909 838L627 -10H426Z" />
<glyph unicode="x" glyph-name="x" horiz-adv-x="1138" d="M883 0L561 451L250 0H33L457 594L70 1139H291L575 739L856 1139H1071L680 592L1106 0H883Z" />
<glyph unicode="y" glyph-name="y" horiz-adv-x="1114" d="M262 -344Q182 -344 158 -342V-180H246Q329 -180 365 -159T422 -76L457 12L14 1139H227L561 250L893 1139H1102L618 -96Q568 -231 490 -287T262 -344Z" />
<glyph unicode="z" glyph-name="z" horiz-adv-x="1048" d="M61 0V145L711 958H94V1139H971V989L319 170H993V0H61Z" />
<glyph unicode="{" glyph-name="braceleft" horiz-adv-x="1050" d="M674 -338Q481 -338 396 -272T311 -66Q311 2 366 193T422 434Q422 498 366 518T160 539V711Q309 711 365 730T422 819Q422 867 367 1058T311 1317Q311 1456 396 1522T674 1589H858V1407H715Q600
1407 558 1375T516 1264Q516 1223 568 1037T621 784Q621 661 500 627Q621 587 621 467Q621 401 569 213T516 -16Q516 -97 557 -129T715 -162H858V-338H674Z" />
<glyph unicode="|" glyph-name="bar" horiz-adv-x="692" d="M244 -338V1589H446V-338H244Z" />
<glyph unicode="}" glyph-name="braceright" horiz-adv-x="1050" d="M193 -338V-162H338Q454 -162 495 -130T537 -16Q537 25 484 213T430 467Q430 588 551 627Q430 664 430 784Q430 850 483 1036T537 1264Q537 1343 495 1375T338 1407H193V1589H379Q573 1589 656
1523T739 1317Q739 1249 684 1058T629 819Q629 754 684 734T891 713V541Q742 541 686 522T629 434Q629 385 684 194T739 -66Q739 -206 656 -272T379 -338H193Z" />
<glyph unicode="~" glyph-name="asciitilde" horiz-adv-x="1208" d="M307 838L184 934Q323 1104 459 1104Q506 1104 548 1088T616 1053T676 1017T743 1001Q808 1001 907 1114L1024 1020Q877 836 748 836Q705 836 664 852T595 887T531 922T463 938Q427 938 386
912T307 838Z" />
</font>
</defs>
</svg>
